<svg width="18" height="20" viewBox="0 0 18 20" fill="none" xmlns="http://www.w3.org/2000/svg">
<g id="Group 14">
<path id="Vector" d="M1.42405 18.2907C1.8759 18.79 2.4127 19.1858 3.00363 19.4555C3.59455 19.7252 4.22794 19.8633 4.8674 19.8621C5.50701 19.8633 6.14054 19.7251 6.73161 19.4555C7.32269 19.1858 7.85967 18.79 8.31173 18.2907L11.0664 15.2501L9.68907 13.7304L6.93439 16.771C6.38547 17.3739 5.64245 17.7125 4.86789 17.7125C4.09333 17.7125 3.35031 17.3739 2.80139 16.771C2.25445 16.1656 1.94733 15.3456 1.94733 14.4908C1.94733 13.636 2.25445 12.816 2.80139 12.2106L5.55705 9.17113L4.17971 7.65138L1.42405 10.6909C0.512128 11.6995 0 13.0661 0 14.4908C0 15.9155 0.512128 17.2821 1.42405 18.2907V18.2907ZM16.5768 9.17113C17.4882 8.16221 18 6.79576 18 5.37121C18 3.94666 17.4882 2.58021 16.5768 1.57129C15.6626 0.56508 14.4241 0 13.1329 0C11.8417 0 10.6032 0.56508 9.68907 1.57129L6.93439 4.61187L8.31173 6.13162L11.0664 3.09104C11.6153 2.48808 12.3584 2.14956 13.1329 2.14956C13.9075 2.14956 14.6505 2.48808 15.1994 3.09104C15.7464 3.69644 16.0535 4.51639 16.0535 5.37121C16.0535 6.22602 15.7464 7.04598 15.1994 7.65138L12.4438 10.6909L13.8211 12.2106L16.5768 9.17113Z" fill="#5B5B5B"/>
<path id="Vector_2" d="M5.55605 15.2513L4.17773 13.7315L12.4447 4.61084L13.822 6.13167L5.55605 15.2513Z" fill="#5B5B5B"/>
</g>
</svg>
